<svg xmlns="http://www.w3.org/2000/svg" viewBox="0 0 108 278.73"><defs><style>.cls-1{fill:#cbcfe9;}</style></defs><title>Asset 5</title><g id="Layer_2" data-name="Layer 2"><g id="Layer_1-2" data-name="Layer 1"><polygon class="cls-1" points="59.36 65.91 59.36 65.93 50 55.53 27.32 30.34 0 0 0 33.89 27.32 64.23 50 89.42 51 90.54 50 91.65 27.32 116.84 0 147.18 0 163.65 0 181.06 81.52 90.52 59.36 65.91"/><polygon class="cls-1" points="105.78 96.59 90.52 113.54 85.32 119.31 58 149.65 56.2 151.65 35.78 174.33 35.32 174.84 35.32 196.01 35.32 208.73 35.32 218.69 35.32 244.84 35.32 278.73 58 253.54 58 219.65 58 218.69 58 196.01 79.29 196.01 85.32 196.01 108 196.01 108 174.32 98.81 174.32 85.32 174.32 66.3 174.32 85.32 153.2 86.72 151.65 105.78 130.48 108 128.01 108 99.06 108 94.12 105.78 96.59"/><polygon class="cls-1" points="0 113.31 20.38 90.76 0.08 68.13 0 113.31"/></g></g></svg>